<svg width="24" height="24" viewBox="0 0 24 24" fill="none" xmlns="http://www.w3.org/2000/svg">
<path d="M22.5 1.5H1.5V4.5H22.5V1.5Z" fill="#081639"/>
<path d="M16.5 7.5H1.5V10.5H9.79168C11.4396 8.65875 13.8345 7.5 16.5 7.5Z" fill="#081639"/>
<path d="M8.01212 19.5C8.40722 20.6179 9.01691 21.6344 9.79168 22.5H1.5V19.5H8.01212Z" fill="#081639"/>
<path d="M8.01212 13.5C7.68046 14.4383 7.5 15.4481 7.5 16.5H1.5V13.5H8.01212Z" fill="#081639"/>
<path d="M22.5 16.5C22.5 17.6127 22.1971 18.6547 21.6693 19.548L23.9357 21.8143L21.8143 23.9357L19.548 21.6693C18.6547 22.1971 17.6127 22.5 16.5 22.5C13.1863 22.5 10.5 19.8137 10.5 16.5C10.5 13.1863 13.1863 10.5 16.5 10.5C19.8137 10.5 22.5 13.1863 22.5 16.5Z" fill="#081639"/>
</svg>
