<svg width="24" height="24" viewBox="0 0 24 24" fill="none" xmlns="http://www.w3.org/2000/svg">
<path fill-rule="evenodd" clip-rule="evenodd" d="M4.5 1.5L2.5 7.5H0V12H1.5V22.5H4.5V19.5H19.5V22.5H22.5V12H24V7.5H21.5L19.5 1.5H4.5ZM6 13.5C5.17157 13.5 4.5 14.1716 4.5 15C4.5 15.8284 5.17157 16.5 6 16.5C6.82843 16.5 7.5 15.8284 7.5 15C7.5 14.1716 6.82843 13.5 6 13.5ZM17.3377 4.5H6.66228L4.66228 10.5H19.3377L17.3377 4.5ZM18 13.5C17.1716 13.5 16.5 14.1716 16.5 15C16.5 15.8284 17.1716 16.5 18 16.5C18.8284 16.5 19.5 15.8284 19.5 15C19.5 14.1716 18.8284 13.5 18 13.5Z" fill="#244FAE"/>
</svg>
