<svg width="24" height="24" viewBox="0 0 24 24" fill="none" xmlns="http://www.w3.org/2000/svg">
<path d="M7.5 1.5V4.5H4.5L4.5 7.5H1.5V1.5H7.5Z" fill="#244FAE"/>
<path d="M1.5 16.5H4.5V19.5H7.5V22.5H1.5V16.5Z" fill="#244FAE"/>
<path d="M22.5 7.5V1.5H16.5V4.5L19.5 4.5V7.5H22.5Z" fill="#244FAE"/>
<path d="M16.5 22.5V19.5H19.5V16.5H22.5V22.5H16.5Z" fill="#244FAE"/>
<path d="M8.625 11.25C9.66053 11.25 10.5 10.4105 10.5 9.375C10.5 8.33947 9.66053 7.5 8.625 7.5C7.58947 7.5 6.75 8.33947 6.75 9.375C6.75 10.4105 7.58947 11.25 8.625 11.25Z" fill="#244FAE"/>
<path d="M17.25 9.375C17.25 10.4105 16.4105 11.25 15.375 11.25C14.3395 11.25 13.5 10.4105 13.5 9.375C13.5 8.33947 14.3395 7.5 15.375 7.5C16.4105 7.5 17.25 8.33947 17.25 9.375Z" fill="#244FAE"/>
<path d="M15.8564 13.0096C14.6893 13.564 13.3831 13.875 12 13.875C10.6169 13.875 9.31066 13.564 8.14364 13.0096L6.85636 15.7194C8.41711 16.4609 10.1623 16.875 12 16.875C13.8377 16.875 15.5829 16.4609 17.1436 15.7194L15.8564 13.0096Z" fill="#244FAE"/>
</svg>
