<svg width="40" height="40" viewBox="0 0 40 40" fill="none" xmlns="http://www.w3.org/2000/svg">
<rect x="0.5" y="0.5" width="39" height="39" rx="19.5" stroke="#081639"/>
<g clip-path="url(#clip0_9_5501)">
<path d="M22.5375 20.8845H15.1375V17.8355H22.5357C22.9679 17.8355 23.2679 17.9145 23.4196 18.0504C23.5696 18.1881 23.6643 18.4416 23.6643 18.8126V19.9073C23.6643 20.2986 23.5714 20.552 23.4196 20.6898C23.2696 20.8275 22.9679 20.8845 22.5357 20.8845H22.5375ZM23.0446 14.961H12V28H15.1375V23.7571H20.9196L23.6643 28H27.1786L24.1536 23.7369C25.2696 23.5643 25.7696 23.2079 26.1821 22.622C26.5946 22.0361 26.8018 21.0975 26.8018 19.8449V18.8677C26.8018 18.1257 26.7268 17.5379 26.5946 17.0898C26.4625 16.6398 26.2375 16.2486 25.9179 15.8977C25.5804 15.5653 25.2036 15.3302 24.7536 15.1741C24.3018 15.0363 23.7375 14.9592 23.0446 14.9592V14.961Z" fill="#081639"/>
<path d="M29.5904 14.9592C30.9225 14.9592 32.0011 13.8498 32.0011 12.4796C32.0011 11.1094 30.9225 10 29.5904 10C28.2583 10 27.1797 11.1094 27.1797 12.4796C27.1797 13.8498 28.2583 14.9592 29.5904 14.9592Z" fill="#D70000"/>
</g>
<defs>
<clipPath id="clip0_9_5501">
<rect width="20" height="18" fill="white" transform="translate(12 10)"/>
</clipPath>
</defs>
</svg>
