<svg width="99" height="14" viewBox="0 0 99 14" fill="none" xmlns="http://www.w3.org/2000/svg">
<g opacity="0.5">
<g clip-path="url(#clip0_9_4132)">
<g clip-path="url(#clip1_9_4132)">
<path d="M6.192 11.583H8.212V0H5.274C2.32 0 0.767 1.517 0.767 3.75C0.767 5.533 1.618 6.583 3.137 7.667L0.5 11.583H2.687L5.625 7.2L4.607 6.517C3.37 5.683 2.77 5.033 2.77 3.633C2.77 2.4 3.638 1.567 5.291 1.567H6.192V11.583ZM32.718 11.017V9.4C32.1 9.817 31.066 10.183 30.098 10.183C28.645 10.183 28.094 9.5 28.011 8.1H32.801V7.05C32.801 4.133 31.516 3.033 29.53 3.033C27.11 3.033 25.957 4.883 25.957 7.417C25.957 10.333 27.393 11.75 29.93 11.75C31.2 11.75 32.134 11.417 32.718 11.017ZM45.138 11.75C46.056 11.75 46.708 11.583 47.191 11.233V9.617C46.691 9.967 46.09 10.183 45.255 10.183C43.836 10.183 43.252 9.083 43.252 7.35C43.252 5.533 43.969 4.6 45.272 4.6C46.039 4.6 46.791 4.867 47.192 5.117V3.433C46.774 3.2 46.039 3.033 45.055 3.033C42.517 3.033 41.198 4.85 41.198 7.4C41.198 10.2 42.484 11.75 45.138 11.75ZM14.522 3.2V6.517H11.868V3.2H9.882V11.583H11.868V8.083H14.522V11.583H16.509V3.2H14.522ZM25.473 10.017H24.589V3.2H18.796V3.917C18.796 5.967 18.662 8.617 17.961 10.017H17.344V13.5H19.18V11.583H23.637V13.5H25.473V10.017ZM39.062 11.583H41.315L38.127 7.067L40.93 3.2H38.927L36.123 7.067V3.2H34.136V11.583H36.123V7.467L39.062 11.583ZM29.496 4.6C30.481 4.6 30.782 5.417 30.782 6.467V6.633H28.01C28.06 5.3 28.545 4.6 29.496 4.6ZM22.602 10.017H19.797C20.348 8.75 20.499 6.467 20.499 5.017V4.767H22.602V10.017ZM57.442 11.583H59.796L55.656 5.483L59.53 0H57.527L53.77 5.333V0H51.75V11.583H53.77V6.15L57.442 11.583ZM66.494 5.867C66.494 3.833 65.459 3.067 63.356 3.067C62.3212 3.06115 61.3027 3.32516 60.401 3.833V5.483C60.935 5.083 62.104 4.65 63.122 4.65C64.074 4.65 64.508 4.983 64.508 5.883V6.35H64.19C61.152 6.35 59.8 7.35 59.8 9.05C59.8 10.75 60.835 11.7 62.37 11.7C63.54 11.7 64.04 11.317 64.424 10.917H64.508C64.524 11.133 64.591 11.417 64.658 11.583H66.594C66.528 10.9 66.494 10.217 66.494 9.533V5.867ZM64.508 9.583C64.258 9.95 63.79 10.25 63.088 10.25C62.254 10.25 61.837 9.75 61.837 9C61.837 8.017 62.521 7.667 64.224 7.667H64.508V9.583ZM69.869 3.2H68.033V14H70.019V10.6C70.52 11.35 71.254 11.75 72.106 11.75C74.042 11.75 75.378 10.2 75.378 7.383C75.378 4.583 74.076 3.033 72.206 3.033C71.271 3.033 70.503 3.467 69.969 4.283L69.869 3.2ZM71.605 10.183C70.553 10.183 70.019 9.333 70.019 7.4C70.019 5.45 70.587 4.6 71.705 4.6C72.79 4.6 73.325 5.45 73.325 7.383C73.325 9.333 72.757 10.183 71.605 10.183ZM82.301 4.767V3.2H75.641V4.767H77.978V11.583H79.964V4.767H82.301ZM83.419 3.2V11.583H86.44C88.393 11.583 89.779 10.583 89.779 8.617C89.779 6.75 88.544 5.767 86.474 5.767H85.405V3.2H83.419ZM90.513 3.2V11.583H92.5V3.2H90.513ZM86.323 10.017H85.405V7.333H86.374C87.224 7.333 87.726 7.717 87.726 8.683C87.726 9.65 87.175 10.017 86.323 10.017Z" fill="#081639"/>
</g>
</g>
</g>
<defs>
<clipPath id="clip0_9_4132">
<rect width="92" height="14" fill="white" transform="translate(0.5)"/>
</clipPath>
<clipPath id="clip1_9_4132">
<rect width="92" height="14" fill="white" transform="translate(0.5)"/>
</clipPath>
</defs>
</svg>
