<svg width="340" height="226" viewBox="0 0 340 226" fill="none" xmlns="http://www.w3.org/2000/svg">
<path d="M191.08 0C196.603 0 201.08 4.47715 201.08 10V105V105C201.08 106.939 202.418 108.995 204.357 108.995H330C335.523 108.995 340 113.472 340 118.995V215.995C340 221.518 335.523 225.995 330 225.995H10C4.47727 225.995 0.000181571 221.518 0 215.995V118.995C0 118.956 0.000226729 118.917 0.000678949 118.877C0.0499974 114.604 0.0800782 109.274 0.0800781 105V105V10C0.0800781 4.47715 4.55723 7.65056e-08 10.0801 0H191.08Z" fill="#081639"/>
</svg>
