<svg width="688" height="256" viewBox="0 0 688 256" fill="none" xmlns="http://www.w3.org/2000/svg">
<path d="M340.195 0.222656C345.718 0.222656 350.195 4.69992 350.195 10.2227V42.8232C350.195 48.3461 354.672 52.8232 360.195 52.8232H678C683.523 52.8232 688 57.3005 688 62.8232V245.177C688 250.699 683.523 255.177 678 255.177H10C4.47725 255.177 0.000152549 250.699 0 245.177V62.8232C9.50703e-06 62.4882 0.0167125 62.1571 0.0491256 61.8306C0.114183 61.1752 0.195312 60.5199 0.195312 59.8613V10.2227C0.195444 4.69992 4.67255 0.222656 10.1953 0.222656H340.195Z" fill="#081639"/>
</svg>
